<?xml version="1.0" encoding="utf-8"?>
<!-- Generator: Adobe Illustrator 24.1.0, SVG Export Plug-In . SVG Version: 6.00 Build 0)  -->
<svg version="1.1" id="Layer_1" xmlns="http://www.w3.org/2000/svg" xmlns:xlink="http://www.w3.org/1999/xlink" x="0px" y="0px"
	 viewBox="0 0 500 271.5" style="enable-background:new 0 0 500 271.5;" xml:space="preserve">
<style type="text/css">
	.st0{fill:#999999;}
	.st1{fill:#333333;}
	.st2{fill:#FFFFFF;}
	.st3{font-family:'ITCAvantGardePro-Bk';}
	.st4{font-size:64px;}
	.st5{fill:#ED1C24;}
	.st6{fill:#FBB03B;}
	.st7{fill:#39B54A;}
</style>
<rect x="0" y="21.75" transform="matrix(-1 3.464102e-07 -3.464102e-07 -1 500.0001 293.4999)" class="st0" width="500" height="250"/>
<rect x="0" y="0.25" width="500" height="250"/>
<rect x="13" y="11.75" class="st1" width="475" height="225"/>
<text transform="matrix(0.8564 0 0 1 56.8809 84.5337)" class="st2 st3 st4">William</text>
<text transform="matrix(1.1417 0 0 1 244.1909 141.0537)" class="st2 st3 st4">Myers</text>
<text transform="matrix(1.047 0 0 1 56.5605 191.8467)" class="st2 st3 st4">Design</text>
<circle class="st1" cx="244.5" cy="261.25" r="6"/>
<rect x="13" y="9.25" class="st2" width="475" height="10"/>
<circle class="st5" cx="23.5" cy="14.25" r="2.5"/>
<circle class="st2" cx="32.5" cy="14.25" r="2"/>
<circle class="st2" cx="42.5" cy="14.25" r="2"/>
<circle class="st6" cx="33.5" cy="14.25" r="2.5"/>
<circle class="st7" cx="43.5" cy="14.25" r="2.5"/>
</svg>
